<?xml version="1.0" encoding="utf-8"?>
<!-- Generator: Adobe Illustrator 16.0.0, SVG Export Plug-In . SVG Version: 6.00 Build 0)  -->
<!DOCTYPE svg PUBLIC "-//W3C//DTD SVG 1.1//EN" "http://www.w3.org/Graphics/SVG/1.1/DTD/svg11.dtd">
<svg version="1.1" id="Layer_1" xmlns="http://www.w3.org/2000/svg" xmlns:xlink="http://www.w3.org/1999/xlink" x="0px" y="0px"
	 width="675.067px" height="1000px" viewBox="160.285 0 675.067 1000" enable-background="new 160.285 0 675.067 1000"
	 xml:space="preserve">
<g>
	<path opacity="0.25" fill="#FFFFFF" enable-background="new    " d="M221.9,917.1v9.801H209V974.8h-11V926.9h-12.9V917.1H221.9z
		 M232.3,974.8v-57.7h11v23h15.6v-23h11v57.7h-11V949.9h-15.6V974.8H232.3z M283.7,974.8v-57.7h30.2v9.801h-19.2v13.3h14.6v9.7
		h-14.6V965.1h20v9.801L283.7,974.8L283.7,974.8z"/>
	<path fill="#FFFFFF" d="M336.9,957.7c0,6.399,2.8,8.2,7.199,8.2c4.4,0,7.2-1.801,7.2-8.2v-3.8h11v2.399c0,14.2-7.5,19.3-18.2,19.3
		c-10.699,0-18.199-5.1-18.199-19.3v-20.6c0-14.2,7.5-19.3,18.199-19.3c10.7,0,18.2,5.1,18.2,19.3v0.2h-11V934.3
		c0-6.399-2.8-8.2-7.2-8.2c-4.399,0-7.199,1.801-7.199,8.2V957.7z M373.5,935.7c0-14.2,7.5-19.3,18.2-19.3s18.2,5.1,18.2,19.3v20.6
		c0,14.2-7.5,19.3-18.2,19.3s-18.2-5.1-18.2-19.3V935.7z M384.5,957.7c0,6.399,2.8,8.2,7.2,8.2c4.399,0,7.2-1.801,7.2-8.2v-23.5
		c0-6.4-2.801-8.2-7.2-8.2c-4.4,0-7.2,1.8-7.2,8.2V957.7z M421.1,935.7c0-14.2,7.5-19.3,18.2-19.3s18.2,5.1,18.2,19.3v20.6
		c0,14.2-7.5,19.3-18.2,19.3s-18.2-5.1-18.2-19.3V935.7z M432.2,957.7c0,6.399,2.8,8.2,7.2,8.2c4.399,0,7.199-1.801,7.199-8.2v-23.5
		c0-6.4-2.8-8.2-7.199-8.2c-4.4,0-7.2,1.8-7.2,8.2V957.7z M470.3,974.8v-57.7h15.9c13.6,0,20.2,6.4,20.2,17.301
		c0,10.899-6.601,17.3-20.2,17.3h-4.9v23.2L470.3,974.8L470.3,974.8z M481.4,942.6h5.899c5.4,0,8.2-2.699,8.2-8.199
		c0-5.4-2.7-8.101-8.2-8.101H481.4V942.6z M517.3,974.8v-57.7h30.2v9.801h-19.2v13.3H543v9.7h-14.6V965.1h20v9.801L517.3,974.8
		L517.3,974.8z M586.4,974.8l-9.601-23.5h-5.3v23.5h-11v-57.7h16c13.3,0,19.6,6.4,19.6,17.301c0,7.199-2.5,12.399-8.699,14.699
		l10.899,25.7H586.4z M571.5,942.2h5.7c4.899,0,7.8-2.4,7.8-8c0-5.601-3-8-7.8-8h-5.7V942.2z"/>
	<path opacity="0.5" fill="#FFFFFF" enable-background="new    " d="M618.3,919.7v38.5c0,5.3,2.3,8,7.4,8c5.1,0,7.5-2.8,7.5-8v-38.5
		h10.5v38.6c0,12.101-7.2,17.2-18,17.2s-17.9-5.1-17.9-17.2v-38.6H618.3z M658.2,974.8v-55.1h11.5l14.6,32.7h0.2v-32.7h9.6v55.1H684
		l-16.1-35.6H667.8v35.6H658.2z M709.3,974.8v-55.1h10.5v55.1H709.3z M732.9,937.4c0-13.601,7.199-18.5,17.399-18.5
		s17.4,4.899,17.4,18.5V957.1c0,13.601-7.2,18.5-17.4,18.5S732.9,970.7,732.9,957.1V937.4z M743.4,958.4c0,6.1,2.699,7.8,6.899,7.8
		s6.9-1.7,6.9-7.8V936c0-6.1-2.7-7.8-6.9-7.8s-6.899,1.7-6.899,7.8V958.4z M780.6,974.8v-55.1h11.5l14.7,32.7h0.101v-32.7h9.6v55.1
		h-10.1L790.3,939.2h-0.1v35.6H780.6z"/>
</g>
<g>
	<polygon fill="none" stroke="#FFFFFF" stroke-width="17.4022" stroke-linejoin="round" points="393.1,25.6 810.8,443.3 
		810.8,652.1 601.9,860.9 184.3,443.3 184.3,234.5 	"/>
	<line fill="none" stroke="#FFFFFF" stroke-width="17.4022" stroke-linejoin="round" x1="393.1" y1="234.5" x2="393.1" y2="25.6"/>
	<polygon fill="none" stroke="#FFFFFF" stroke-width="17.4022" stroke-linejoin="round" points="601.9,234.4 393.1,443.3 
		393.1,652.1 602,443.2 	"/>
	<polyline fill="none" stroke="#FFFFFF" stroke-width="17.4022" stroke-linejoin="round" points="810.8,443.3 601.9,652.1 
		184.3,234.5 	"/>
	<polyline fill="none" stroke="#FFFFFF" stroke-width="17.4022" stroke-linejoin="round" points="184.3,443.3 393.1,234.5 
		810.8,652.1 	"/>
	<line fill="none" stroke="#FFFFFF" stroke-width="17.4022" stroke-linejoin="round" x1="601.9" y1="652.1" x2="601.9" y2="860.9"/>
</g>
</svg>
