<?xml version="1.0" encoding="utf-8"?>
<!-- Generator: Adobe Illustrator 16.0.0, SVG Export Plug-In . SVG Version: 6.00 Build 0)  -->
<!DOCTYPE svg PUBLIC "-//W3C//DTD SVG 1.1//EN" "http://www.w3.org/Graphics/SVG/1.1/DTD/svg11.dtd">
<svg version="1.1" id="Layer_1" xmlns="http://www.w3.org/2000/svg" xmlns:xlink="http://www.w3.org/1999/xlink" x="0px" y="0px"
	 width="334.686px" height="156.216px" viewBox="31.087 129.288 334.686 156.216"
	 enable-background="new 31.087 129.288 334.686 156.216" xml:space="preserve">
<path fill="none" stroke="#FFFFFF" stroke-miterlimit="10" d="M45.322,285.504"/>
<g>
	<g>
		<path fill="#FFFFFF" d="M57.618,249.344c0.276-18.435,0.306-36.881,0.018-55.312c-0.173-11.058-0.323-22.188-1.442-33.198
			c-1.101-10.83-7.3-20.583-15.3-27.82c-0.966-0.874-8.25,5.831-8.555,5.556c7.813,7.067,14.024,16.637,15.234,27.207
			c1.24,10.837,1.299,21.856,1.49,32.749c0.329,18.789,0.281,37.588,0,56.375c0.002-0.141,4.14-2.322,4.444-2.521
			C54.094,251.997,57.605,250.199,57.618,249.344L57.618,249.344z"/>
	</g>
</g>
<g>
	<g>
		<path fill="#FFFFFF" d="M53.843,154.947c10.216-7.224,20.433-14.448,30.649-21.672c-2.193,1.319-4.387,2.639-6.58,3.958
			c5.308,3.252,9.114,9.314,11.848,14.696c3.547,6.984,5.352,14.739,6.324,22.466c0.265,2.106,0.4,4.226,0.521,6.344
			c0.028,0.479,0.466,4.776,0.471,4.771c-0.834,0.667-1.669,1.335-2.504,2.003c-14.446,11.555-28.892,23.11-43.338,34.665
			c-1.503,1.202,1.52-0.497,1.763-0.646c1.984-1.191,3.982-2.444,5.792-3.893c14.571-11.656,29.142-23.311,43.712-34.966
			c0.71-0.568,1.42-1.136,2.13-1.704c1.766-1.412,0.473-6.93,0.316-9.036c-0.604-8.163-2.473-16.257-5.775-23.752
			c-2.653-6.023-6.907-12.954-12.705-16.507c-0.869-0.532-5.853,3.444-6.58,3.958c-10.216,7.224-20.433,14.448-30.648,21.672
			c-0.231,0.164-3.021,2.226-1.307,1.348C49.99,157.6,51.957,156.281,53.843,154.947L53.843,154.947z"/>
	</g>
</g>
<g>
	<g>
		<path fill="#FFFFFF" d="M75.345,243.197c5.947,4.069,11.896,8.139,17.842,12.206c0.893,0.611,6.602-3.971,7.419-4.561
			c5.148-3.709,10.296-7.418,15.444-11.127c1.396-1.007,1.249-1.204-0.235-0.361c-2.09,1.186-4.1,2.522-6.049,3.928
			c-5.148,3.709-10.296,7.418-15.444,11.127c2.473-1.52,4.946-3.04,7.419-4.561c-5.947-4.068-11.896-8.14-17.842-12.207
			C82.488,236.677,76.052,243.683,75.345,243.197L75.345,243.197z"/>
	</g>
</g>
<g>
	<g>
		<path fill="#FFFFFF" d="M87.254,239.938c0-10.866,0-21.733,0-32.602c0-1.609,0-3.224,0-4.836c0,0.079-0.778,0.607,0.19-0.209
			c1.011-0.854,2.022-1.708,3.033-2.562c4.109-3.473,8.219-6.942,12.329-10.415c-2.685,1.682-5.37,3.364-8.055,5.047
			c6.437,5.218,10.39,13.385,10.643,21.601c0.31,10.082,0,21.222,0,31.31c0-0.125,4.147-3.33,4.444-3.522
			c0.573-0.372,4.111-2.192,4.111-3.034c0-10.103,0-20.204,0-30.307c0-8.135-4.334-16.487-10.643-21.602
			c-0.789-0.64-7.255,4.372-8.055,5.047c-4.109,3.471-8.219,6.942-12.329,10.415c-3.413,2.883-4.223,2.988-4.223,7.312
			c0,11.304,0,22.608,0,33.912c0-0.124,4.146-2.328,4.444-2.521C83.716,242.601,87.254,240.776,87.254,239.938L87.254,239.938z"/>
	</g>
</g>
<g>
	<g>
		<path fill="#FFFFFF" d="M170.989,193.446c0,25.955,0,51.908,0,77.863c0-0.123,4.146-2.328,4.444-2.521
			c0.573-0.372,4.111-2.194,4.111-3.034c0-25.955,0-51.91,0-77.865c0,0.125-4.147,2.329-4.444,2.521
			C174.527,190.784,170.989,192.605,170.989,193.446L170.989,193.446z"/>
	</g>
</g>
<g>
	<g>
		<path fill="#FFFFFF" d="M179.044,202.972c6.514-5.107,13.027-10.219,19.541-15.328c-2.685,1.682-5.37,3.364-8.055,5.047
			c6.282,9.434,7.793,23.921,5.766,34.727c-1.292,6.884-5.662,12.856-10.43,17.778c-2.188,2.258-4.616,4.328-7.18,6.146
			c0.822-0.583-0.316,0.146,0.189-0.124c-2.052,1.088-4.012,2.379-5.912,3.709c-0.229,0.16-3.008,2.248-1.307,1.348
			c10.557-5.59,21.947-13.359,28.478-23.551c8.097-12.632,7.338-32.992-1.051-45.589c-0.326-0.489-7.38,4.52-8.055,5.047
			c-6.514,5.109-13.027,10.219-19.541,15.327c-1.515,1.188,1.522-0.501,1.763-0.646C175.24,205.67,177.217,204.403,179.044,202.972
			L179.044,202.972z"/>
	</g>
</g>
<g>
	<g>
		<path fill="#FFFFFF" d="M219.352,200.851c4.5-3.066,9-6.136,13.498-9.204c-1.857,1.089-3.718,2.179-5.574,3.269
			c7.442,6.215,9.863,17.429,9.977,26.573c0.145,11.785-1.621,24.385-3.969,35.961c0.072-0.354,4.016-2.242,4.443-2.521
			c0.774-0.504,3.899-1.994,4.11-3.033c2.373-11.7,3.729-24.051,3.967-35.961c0.181-9.037-2.676-20.479-9.975-26.575
			c-0.547-0.456-5.093,2.939-5.576,3.269c-4.498,3.068-8.998,6.137-13.498,9.205c-0.521,0.354-2.856,2.284-2.78,2.256
			C215.873,203.371,217.691,201.983,219.352,200.851L219.352,200.851z"/>
	</g>
</g>
<g>
	<g>
		<path fill="#FFFFFF" d="M290.332,193.364c0,20.705,0,41.412,0,62.117c0-0.123,4.146-2.328,4.443-2.521
			c0.572-0.372,4.108-2.193,4.108-3.034c0-20.707,0-41.411,0-62.119c0,0.125-4.146,2.329-4.442,2.521
			C293.869,190.702,290.332,192.523,290.332,193.364L290.332,193.364z"/>
	</g>
</g>
<g>
	<g>
		<path fill="#FFFFFF" d="M299.253,200.819c3.824-3.105,7.504-6.56,12.787-5.175c3.094,0.81,4.184,4.171,4.41,6.962
			c0.444,5.471,0.371,11.006,0.397,16.487c0.062,12.252-0.112,24.505-0.27,36.755c0.002-0.139,4.141-2.324,4.443-2.521
			c0.584-0.38,4.1-2.182,4.108-3.034c0.197-15.438,0.482-30.889,0.156-46.327c-0.117-5.56,0.197-15.843-8.424-14.178
			c-4.418,0.854-8.32,3.594-12.039,6.008c-4.543,2.95-8.925,6.146-13.13,9.561c-1.491,1.213,1.519-0.498,1.765-0.646
			C295.439,203.522,297.457,202.276,299.253,200.819L299.253,200.819z"/>
	</g>
</g>
<g>
	<g>
		<path fill="#FFFFFF" d="M246.824,242.687c5.945,4.068,11.895,8.14,17.842,12.207c0.895,0.61,6.602-3.972,7.42-4.561
			c5.146-3.709,10.295-7.418,15.442-11.127c1.396-1.007,1.247-1.205-0.235-0.363c-2.09,1.187-4.102,2.524-6.049,3.928
			c-5.146,3.709-10.295,7.418-15.443,11.127c2.475-1.52,4.945-3.039,7.42-4.56c-5.947-4.069-11.895-8.139-17.842-12.207
			C253.966,236.165,247.531,243.17,246.824,242.687L246.824,242.687z"/>
	</g>
</g>
<g>
	<g>
		<path fill="#FFFFFF" d="M258.732,239.426c0-10.702,0-21.405,0-32.106c0-1.477,0-2.95,0-4.428c0-0.476,3.416-3.062,4.055-3.643
			c3.963-3.594,7.926-7.188,11.889-10.783c-2.813,1.796-5.631,3.592-8.445,5.388c6.438,5.217,10.392,13.385,10.644,21.601
			c0.312,10.082,0,21.22,0,31.308c0-0.123,4.147-3.328,4.444-3.521c0.572-0.372,4.109-2.194,4.109-3.034c0-10.104,0-20.205,0-30.309
			c0-8.133-4.334-16.486-10.643-21.602c-0.846-0.684-7.586,4.608-8.447,5.388c-3.963,3.594-7.926,7.188-11.889,10.782
			c-3.152,2.858-4.271,3.086-4.271,7.129c0,11.129,0,22.256,0,33.383c0-0.123,4.148-2.328,4.445-2.521
			C255.196,242.088,258.732,240.267,258.732,239.426L258.732,239.426z"/>
	</g>
</g>
<g>
	<g>
		<path fill="#FFFFFF" d="M127.853,250.606c0-39.438,0-81.879,0-121.318c0,0.125-4.147,2.329-4.444,2.521
			c-0.573,0.373-4.111,2.194-4.111,3.035c0,39.438,0,81.88,0,121.318c0-0.124,4.147-2.328,4.444-2.521
			C124.315,253.271,127.853,251.447,127.853,250.606L127.853,250.606z"/>
	</g>
</g>
<g>
	<g>
		<path fill="#FFFFFF" d="M218.871,250.959c0-39.438,0-81.882,0-121.321c0,0.125-4.146,2.329-4.445,2.521
			c-0.572,0.373-4.109,2.194-4.109,3.035c0,39.438,0,81.881,0,121.321c0-0.125,4.146-2.328,4.443-2.521
			C215.333,253.621,218.871,251.799,218.871,250.959L218.871,250.959z"/>
	</g>
</g>
<g>
	<g>
		<path fill="#FFFFFF" d="M356.07,194.163c0,14.568,0,29.138,0,43.707c0,9.539-7.951,16.558-14.695,22.23
			c-5.434,4.571-11.072,8.902-16.748,13.17c-2.172,1.635-4.359,3.248-6.555,4.854c-0.48,0.352-3.82,2.761-2.187,1.59
			c-0.229,0.164-3.02,2.227-1.307,1.348c2.057-1.055,4.037-2.363,5.912-3.709c8.562-6.132,16.979-12.481,25.172-19.102
			c7.266-5.868,18.959-14.168,18.959-24.718c0-14.976,0-29.95,0-44.926c0,0.125-4.146,2.329-4.443,2.521
			C359.607,191.501,356.07,193.322,356.07,194.163L356.07,194.163z"/>
	</g>
</g>
<g>
	<g>
		<path fill="#FFFFFF" d="M330.818,194.919c0,11.828,0,23.655,0,35.482c0-0.123,4.146-2.327,4.442-2.521
			c0.572-0.372,4.109-2.193,4.109-3.034c0-0.079,0-0.161,0-0.241c0,0.125-4.146,2.328-4.443,2.521
			c-0.573,0.372-4.108,2.192-4.108,3.034c0,5.031,0.01,8.824,2.983,13.092c3.552,5.09,9.781,8.812,15.979,9.121
			c1.268,0.062,3.467-1.887,4.442-2.521c0.603-0.392,3.498-3.064,4.111-3.035c-6.49-0.324-12.027-4.151-15.979-9.121
			c-3.177-3.991-2.984-8.268-2.984-13.092c0,0.125-4.146,2.328-4.443,2.521c-0.574,0.372-4.108,2.193-4.108,3.034
			c0,0.081,0,0.161,0,0.241c0-0.123,4.146-2.327,4.442-2.521c0.572-0.372,4.109-2.193,4.109-3.034c0-11.827,0-23.655,0-35.483
			c0,0.125-4.146,2.329-4.443,2.521C334.354,192.257,330.818,194.078,330.818,194.919L330.818,194.919z"/>
	</g>
</g>
<g>
	<path fill="#FFFFFF" d="M57.019,218.433c0,0-1.236,0.914-2.992,2.394c-1.738,1.491-4.039,3.52-5.967,5.821
		c-0.975,1.142-1.775,2.397-2.433,3.56c-0.351,0.569-0.636,1.135-0.894,1.668c-0.25,0.539-0.418,1.058-0.55,1.549
		c-0.028,0.242-0.103,0.482-0.122,0.711c-0.008,0.228-0.036,0.451-0.031,0.66c0.012,0.213,0.022,0.412,0.034,0.597
		c0.036,0.187,0.069,0.354,0.099,0.51c0.041,0.326,0.168,0.552,0.206,0.731c0.054,0.179,0.081,0.271,0.081,0.271l-0.16,0.118
		c0,0-0.074-0.067-0.213-0.196c-0.127-0.138-0.372-0.312-0.562-0.621c-0.104-0.154-0.218-0.324-0.342-0.513
		c-0.09-0.207-0.188-0.435-0.291-0.674c-0.168-0.5-0.285-1.099-0.29-1.756c0.013-0.324,0.036-0.666,0.077-1.015
		c0.08-0.334,0.131-0.701,0.249-1.043c0.203-0.703,0.519-1.402,0.915-2.062c0.396-0.666,0.889-1.281,1.408-1.877
		c0.535-0.58,1.072-1.166,1.645-1.709c2.262-2.201,4.76-4.054,6.715-5.308c1.941-1.272,3.312-1.988,3.312-1.99L57.019,218.433z"/>
</g>
<g>
	<g>
		<path fill="#FFFFFF" d="M157.63,194.163c0,14.568,0,29.138,0,43.707c0,9.539-7.951,16.558-14.694,22.23
			c-5.434,4.571-11.073,8.902-16.748,13.17c-2.173,1.635-4.36,3.248-6.554,4.854c-0.481,0.352-3.82,2.761-2.185,1.59
			c-0.229,0.164-3.021,2.227-1.307,1.348c2.056-1.055,4.037-2.363,5.912-3.709c8.562-6.132,16.979-12.481,25.171-19.102
			c7.265-5.868,18.958-14.169,18.958-24.718c0-14.976,0-29.95,0-44.926c0,0.125-4.147,2.329-4.444,2.521
			C161.167,191.501,157.63,193.322,157.63,194.163L157.63,194.163z"/>
	</g>
</g>
<g>
	<g>
		<path fill="#FFFFFF" d="M132.378,194.919c0,11.828,0,23.655,0,35.482c0-0.123,4.147-2.327,4.444-2.521
			c0.573-0.372,4.111-2.193,4.111-3.034c0-0.079,0-0.161,0-0.241c0,0.125-4.147,2.328-4.444,2.521
			c-0.573,0.372-4.111,2.192-4.111,3.034c0,5.031,0.009,8.824,2.985,13.092c3.552,5.09,9.782,8.812,15.979,9.121
			c1.267,0.062,3.467-1.887,4.444-2.521c0.601-0.392,3.499-3.064,4.111-3.035c-6.489-0.324-12.027-4.151-15.98-9.121
			c-3.176-3.991-2.985-8.268-2.985-13.092c0,0.125-4.147,2.328-4.444,2.521c-0.573,0.372-4.111,2.193-4.111,3.034
			c0,0.081,0,0.161,0,0.241c0-0.123,4.147-2.327,4.444-2.521c0.573-0.372,4.111-2.193,4.111-3.034c0-11.827,0-23.655,0-35.483
			c0,0.125-4.147,2.329-4.444,2.521C135.916,192.257,132.378,194.078,132.378,194.919L132.378,194.919z"/>
	</g>
</g>
</svg>
