<?xml version="1.0" encoding="utf-8"?>
<!-- Generator: Adobe Illustrator 16.0.0, SVG Export Plug-In . SVG Version: 6.00 Build 0)  -->
<!DOCTYPE svg PUBLIC "-//W3C//DTD SVG 1.1//EN" "http://www.w3.org/Graphics/SVG/1.1/DTD/svg11.dtd">
<svg version="1.1" id="Layer_1" xmlns="http://www.w3.org/2000/svg" xmlns:xlink="http://www.w3.org/1999/xlink" x="0px" y="0px"
	 width="1008px" height="720.074px" viewBox="0 0 1008 720.074" enable-background="new 0 0 1008 720.074" xml:space="preserve">
<rect x="-10.383" y="-11.889" width="1025.949" height="740.962"/>
<g>
	<path fill="none" stroke="#FFFFFF" stroke-miterlimit="10" d="M222.028,0c0,0,11.98,95.057,102.258,95.058
		C414.564,95.058,426.544,0,426.544,0"/>
</g>
<g>
	<path fill="none" stroke="#FFFFFF" stroke-miterlimit="10" d="M222.028,0"/>
</g>
<g>
	<path fill="none" stroke="#FFFFFF" stroke-miterlimit="10" d="M426.544,0"/>
</g>
<g>
	<path fill="none" stroke="#FFFFFF" stroke-miterlimit="10" d="M222.028,0"/>
</g>
<g>
	<path fill="none" stroke="#FFFFFF" stroke-miterlimit="10" d="M426.544,0"/>
</g>
<g>
	<path fill="none" stroke="#FFFFFF" stroke-miterlimit="10" d="M222.028,0"/>
</g>
<g>
	<path fill="none" stroke="#FFFFFF" stroke-miterlimit="10" d="M426.544,0"/>
</g>
<g>
	<path fill="none" stroke="#FFFFFF" stroke-miterlimit="10" d="M222.028,0"/>
</g>
<g>
	<path fill="none" stroke="#FFFFFF" stroke-miterlimit="10" d="M426.544,0"/>
</g>
<g>
	<path fill="none" stroke="#FFFFFF" stroke-miterlimit="10" d="M222.028,0"/>
</g>
<g>
	<path fill="none" stroke="#FFFFFF" stroke-miterlimit="10" d="M426.544,0"/>
</g>
<g>
	<path fill="none" stroke="#FFFFFF" stroke-miterlimit="10" d="M222.028,0"/>
</g>
<g>
	<path fill="none" stroke="#FFFFFF" stroke-miterlimit="10" d="M426.544,0"/>
</g>
<g>
	<path fill="none" stroke="#FFFFFF" stroke-miterlimit="10" d="M426.544,0c0,0-11.98,81.692-102.258,81.692S222.028,0,222.028,0"/>
</g>
<g>
	<path fill="none" stroke="#FFFFFF" stroke-miterlimit="10" d="M426.544,0c0,0-11.98,68.528-102.258,68.528
		C234.008,68.527,222.028,0,222.028,0"/>
</g>
<g>
	<path fill="none" stroke="#FFFFFF" stroke-miterlimit="10" d="M426.544,0c0,0-11.979,53.887-102.257,53.887
		C234.009,53.886,222.028,0,222.028,0"/>
</g>
<g>
	<path fill="none" stroke="#FFFFFF" stroke-miterlimit="10" d="M426.544,0c0,0-11.979,40.846-102.257,40.846
		C234.009,40.846,222.028,0,222.028,0"/>
</g>
<g>
	<path fill="none" stroke="#FFFFFF" stroke-miterlimit="10" d="M426.544,0c0,0-11.979,26.943-102.257,26.943
		C234.009,26.942,222.028,0,222.028,0"/>
</g>
<g>
	<path fill="none" stroke="#FFFFFF" stroke-miterlimit="10" d="M426.544,0c0,0-11.979,13.471-102.257,13.471
		C234.009,13.471,222.028,0,222.028,0"/>
</g>
<line fill="none" stroke="#FFFFFF" stroke-miterlimit="10" x1="426.544" y1="0" x2="222.028" y2="0"/>
<g>
	<path fill="none" stroke="#FFFFFF" stroke-miterlimit="10" d="M222.028,0"/>
</g>
<g>
	<path fill="none" stroke="#FFFFFF" stroke-miterlimit="10" d="M426.544,0"/>
</g>
<path fill="none" stroke="#FFFFFF" stroke-width="2" stroke-miterlimit="10" d="M432.059,0c0,59.521-48.252,107.771-107.772,107.771
	S216.514,59.521,216.514,0"/>
<ellipse fill="none" stroke="#FFFFFF" stroke-miterlimit="10" cx="540.867" cy="179.875" rx="44.875" ry="35.458"/>
<ellipse fill="none" stroke="#FFFFFF" stroke-miterlimit="10" cx="157.556" cy="395.552" rx="58.11" ry="35.459"/>
<line fill="none" stroke="#FFFFFF" stroke-width="2" stroke-miterlimit="10" x1="99.445" y1="395.552" x2="215.666" y2="395.552"/>
<line fill="none" stroke="#FFFFFF" stroke-width="2" stroke-miterlimit="10" x1="495.992" y1="179.875" x2="585.742" y2="179.875"/>
<g>
	<path fill="none" stroke="#FFFFFF" stroke-miterlimit="10" d="M920.696,434.48c0,0,43.729,58.969-13.689,116.389
		c-57.42,57.42-116.389,13.69-116.389,13.69"/>
</g>
<g>
	<path fill="none" stroke="#FFFFFF" stroke-miterlimit="10" d="M791.619,393.198"/>
</g>
<g>
	<path fill="none" stroke="#FFFFFF" stroke-miterlimit="10" d="M791.619,577.156"/>
</g>
<g>
	<path fill="none" stroke="#FFFFFF" stroke-miterlimit="10" d="M791.619,393.198"/>
</g>
<g>
	<path fill="none" stroke="#FFFFFF" stroke-miterlimit="10" d="M791.619,577.156"/>
</g>
<g>
	<path fill="none" stroke="#FFFFFF" stroke-miterlimit="10" d="M791.619,393.198"/>
</g>
<g>
	<path fill="none" stroke="#FFFFFF" stroke-miterlimit="10" d="M791.619,577.156"/>
</g>
<g>
	<path fill="none" stroke="#FFFFFF" stroke-miterlimit="10" d="M791.619,393.198"/>
</g>
<g>
	<path fill="none" stroke="#FFFFFF" stroke-miterlimit="10" d="M791.619,577.156"/>
</g>
<g>
	<path fill="none" stroke="#FFFFFF" stroke-miterlimit="10" d="M791.619,393.198"/>
</g>
<g>
	<path fill="none" stroke="#FFFFFF" stroke-miterlimit="10" d="M791.619,577.156"/>
</g>
<g>
	<path fill="none" stroke="#FFFFFF" stroke-miterlimit="10" d="M791.619,393.198"/>
</g>
<g>
	<path fill="none" stroke="#FFFFFF" stroke-miterlimit="10" d="M791.619,577.156"/>
</g>
<g>
	<path fill="none" stroke="#FFFFFF" stroke-miterlimit="10" d="M790.618,564.56c0,0,51.748,36.51,109.168-20.91
		s20.91-109.169,20.91-109.169"/>
</g>
<g>
	<path fill="none" stroke="#FFFFFF" stroke-miterlimit="10" d="M790.618,564.56c0,0,44.637,29.398,102.057-28.021
		c57.42-57.419,28.021-102.058,28.021-102.058"/>
</g>
<g>
	<path fill="none" stroke="#FFFFFF" stroke-miterlimit="10" d="M790.618,564.56c0,0,36.728,21.489,94.146-35.93
		c57.42-57.42,35.932-94.149,35.932-94.149"/>
</g>
<g>
	<path fill="none" stroke="#FFFFFF" stroke-miterlimit="10" d="M790.618,564.56c0,0,29.683,14.445,87.102-42.975
		c57.42-57.42,42.977-87.104,42.977-87.104"/>
</g>
<g>
	<path fill="none" stroke="#FFFFFF" stroke-miterlimit="10" d="M791.619,393.198"/>
</g>
<g>
	<path fill="none" stroke="#FFFFFF" stroke-miterlimit="10" d="M791.619,577.156"/>
</g>
<path fill="none" stroke="#FFFFFF" stroke-width="2" stroke-miterlimit="10" d="M1008,361.343
	c-20.141,0-36.469-16.328-36.469-36.469c0-20.141,16.328-36.468,36.469-36.468"/>
<path fill="none" stroke="#FFFFFF" stroke-miterlimit="10" d="M508.83,565.115c0,0-44.651-19.175-93.773,29.947
	c-49.124,49.123-29.949,93.775-29.949,93.775"/>
<path fill="none" stroke="#FFFFFF" stroke-miterlimit="10" d="M283.492,587.222c0,0,44.649,19.174,93.772-29.949
	c49.121-49.122,29.95-93.774,29.95-93.774"/>
<line fill="none" stroke="#FFFFFF" stroke-width="2" stroke-miterlimit="10" x1="319.898" y1="652.408" x2="472.403" y2="499.902"/>
</svg>
