<?xml-stylesheet type="text/css" href="../css/idsanimation.css"?>
<!-- Generator: Adobe Illustrator 16.0.0, SVG Export Plug-In . SVG Version: 6.00 Build 0)  -->
<!DOCTYPE svg PUBLIC "-//W3C//DTD SVG 1.1//EN" "http://www.w3.org/Graphics/SVG/1.1/DTD/svg11.dtd">
<svg class="svgcontainer" version="1.1" id="Layer_1" xmlns="http://www.w3.org/2000/svg" xmlns:xlink="http://www.w3.org/1999/xlink" x="0px" y="0px"
	 width="612px" height="612px" viewBox="0 0 612 612" enable-background="new 0 0 612 612" xml:space="preserve">
<rect x="0" y="0" width="100%" height="100%" fill-opacity="0"/>
<path class="stroke2 load" fill="none" stroke="#ffffff" stroke-width="7" stroke-miterlimit="10" d="M516.988,304.747
	c16.757-24.35,26.565-53.853,26.565-85.647c0-83.535-67.718-151.253-151.253-151.253c-83.534,0-151.254,67.72-151.254,151.254
	c0,83.534,67.719,151.252,151.253,151.252c51.372,0,96.767-25.612,124.103-64.764"/>
<path class="stroke load" fill="none" stroke="#ffffff" stroke-width="7" stroke-miterlimit="10" d="M147.098,300.986H67.281V544.12l79.817,0.032l0,0
	l0.006-476.305c131.529,0,238.153,106.624,238.153,238.151c0,131.53-106.63,238.155-238.159,238.155l0,0"/>
<path class="stroke3 load" fill="none" stroke="#ffffff" stroke-width="7.0539" stroke-miterlimit="10" d="M376.354,247.036
	c104.91-3.072,168.365,60.521,168.365,144.698c0,84.182-68.24,152.42-152.416,152.42s-152.417-68.238-152.417-152.42
	c0-30.924,9.002-61.459,26.843-86.339"/>


</svg>
